<svg xmlns="http://www.w3.org/2000/svg" viewBox="0 0 120 120"><defs><linearGradient id="g" x1="0" y1="0" x2="1" y2="1"><stop stop-color="#cdb885"/><stop offset="1" stop-color="#4d3725"/></linearGradient></defs><rect width="120" height="120" rx="60" fill="#152021"/><circle cx="60" cy="49" r="25" fill="#a96d4c"/><path d="M35 43c0-22 13-33 27-33 18 0 31 12 29 35-12-10-26-14-43-12-4 3-8 7-13 10Z" fill="#171211"/><path d="M20 116c3-28 19-40 40-40s37 12 40 40" fill="url(#g)"/><circle cx="51" cy="49" r="2" fill="#332018"/><circle cx="69" cy="49" r="2" fill="#332018"/><path d="M48 60c8 8 16 8 24 0-2 11-8 16-12 16s-10-5-12-16Z" fill="#3c251d"/></svg>
