<svg xmlns="http://www.w3.org/2000/svg" viewBox="0 0 120 120"><defs><linearGradient id="g" x1="0" y1="0" x2="1" y2="1"><stop stop-color="#8c6a43"/><stop offset="1" stop-color="#cdb885"/></linearGradient></defs><rect width="120" height="120" rx="60" fill="#172025"/><circle cx="60" cy="49" r="25" fill="#9e6547"/><path d="M35 45c0-25 13-34 27-34 21 0 31 14 28 37-8-14-23-20-45-16-2 5-5 10-10 13Z" fill="#181312"/><path d="M20 116c4-28 20-40 40-40s36 12 40 40" fill="url(#g)"/><path d="M44 51h13m7 0h13" stroke="#312019" stroke-width="2"/><circle cx="51" cy="51" r="7" fill="none" stroke="#312019" stroke-width="2"/><circle cx="70" cy="51" r="7" fill="none" stroke="#312019" stroke-width="2"/><path d="M53 63c5 3 10 3 15 0" fill="none" stroke="#713d31" stroke-width="2" stroke-linecap="round"/></svg>
