<svg xmlns="http://www.w3.org/2000/svg" viewBox="0 0 1000 760" role="img" aria-labelledby="title desc">
  <title id="title">NexaFlow finance dashboard</title>
  <desc id="desc">Abstract gold and brown financial analytics dashboard</desc>
  <defs>
    <linearGradient id="bg" x1="0" y1="0" x2="1" y2="1"><stop stop-color="#0c0d10"/><stop offset="1" stop-color="#21180f"/></linearGradient>
    <linearGradient id="gold" x1="0" y1="0" x2="1" y2="0"><stop stop-color="#e4d29f"/><stop offset="1" stop-color="#9b784a"/></linearGradient>
    <filter id="glow"><feGaussianBlur stdDeviation="18"/></filter>
  </defs>
  <rect width="1000" height="760" fill="url(#bg)"/>
  <circle cx="830" cy="140" r="190" fill="#cdb885" opacity=".08" filter="url(#glow)"/>
  <g opacity=".12" stroke="#cdb885"><path d="M0 120h1000M0 240h1000M0 360h1000M0 480h1000M0 600h1000"/><path d="M125 0v760M250 0v760M375 0v760M500 0v760M625 0v760M750 0v760M875 0v760"/></g>
  <rect x="70" y="72" width="860" height="616" rx="32" fill="#141519" stroke="#cdb885" stroke-opacity=".22"/>
  <rect x="70" y="72" width="190" height="616" rx="32" fill="#101115"/>
  <circle cx="122" cy="128" r="18" fill="url(#gold)"/><rect x="154" y="116" width="72" height="10" rx="5" fill="#d8c48f"/><rect x="154" y="134" width="48" height="7" rx="3.5" fill="#6e5034"/>
  <g fill="#8f877d"><rect x="104" y="205" width="110" height="9" rx="4.5"/><rect x="104" y="256" width="88" height="9" rx="4.5"/><rect x="104" y="307" width="102" height="9" rx="4.5"/><rect x="104" y="358" width="78" height="9" rx="4.5"/></g>
  <rect x="100" y="188" width="130" height="42" rx="12" fill="#cdb885" opacity=".11" stroke="#cdb885" stroke-opacity=".28"/>
  <g transform="translate(300 112)">
    <rect width="270" height="138" rx="22" fill="#1c1d21" stroke="#cdb885" stroke-opacity=".16"/>
    <text x="24" y="40" fill="#958d83" font-family="Arial" font-size="15">TOTAL REVENUE</text>
    <text x="24" y="83" fill="#f3ecdf" font-family="Arial" font-size="34" font-weight="700">$486,240</text>
    <rect x="24" y="104" width="88" height="20" rx="10" fill="#68d4a3" opacity=".12"/><text x="38" y="119" fill="#68d4a3" font-family="Arial" font-size="12">+18.4%</text>
  </g>
  <g transform="translate(596 112)">
    <rect width="280" height="138" rx="22" fill="#1c1d21" stroke="#cdb885" stroke-opacity=".16"/>
    <text x="24" y="40" fill="#958d83" font-family="Arial" font-size="15">ACTIVE ACCOUNTS</text>
    <text x="24" y="83" fill="#f3ecdf" font-family="Arial" font-size="34" font-weight="700">12,846</text>
    <circle cx="233" cy="69" r="32" fill="none" stroke="#6e5034" stroke-width="7"/><path d="M233 37a32 32 0 0 1 27 49" fill="none" stroke="#cdb885" stroke-width="7" stroke-linecap="round"/>
  </g>
  <g transform="translate(300 282)">
    <rect width="576" height="250" rx="22" fill="#1c1d21" stroke="#cdb885" stroke-opacity=".16"/>
    <text x="25" y="40" fill="#f0e8da" font-family="Arial" font-size="18" font-weight="700">Revenue performance</text>
    <g stroke="#ffffff" stroke-opacity=".06"><path d="M25 85h526M25 130h526M25 175h526M25 220h526"/></g>
    <path d="M30 205C90 188 110 153 165 164s74-42 123-35 61-58 116-48 84-35 145-46" fill="none" stroke="url(#gold)" stroke-width="5" stroke-linecap="round"/>
    <path d="M30 205C90 188 110 153 165 164s74-42 123-35 61-58 116-48 84-35 145-46v164H30Z" fill="#cdb885" opacity=".07"/>
    <g fill="#cdb885"><circle cx="165" cy="164" r="6"/><circle cx="288" cy="129" r="6"/><circle cx="404" cy="81" r="6"/><circle cx="549" cy="35" r="6"/></g>
  </g>
  <g transform="translate(300 558)">
    <rect width="576" height="82" rx="20" fill="#1c1d21" stroke="#cdb885" stroke-opacity=".16"/>
    <circle cx="42" cy="41" r="18" fill="#cdb885" opacity=".16"/><rect x="78" y="24" width="165" height="11" rx="5.5" fill="#e4d29f" opacity=".85"/><rect x="78" y="44" width="106" height="8" rx="4" fill="#746d65"/><rect x="445" y="24" width="102" height="34" rx="12" fill="url(#gold)"/>
  </g>
</svg>
