<svg xmlns="http://www.w3.org/2000/svg" viewBox="0 0 1200 650" role="img" aria-labelledby="title desc"><title id="title">OrbitOps cloud operations platform</title><desc id="desc">Cloud infrastructure monitoring dashboard with deployment nodes</desc>
<defs><linearGradient id="bg" x1="0" y1="0" x2="1" y2="1"><stop stop-color="#0a0d10"/><stop offset="1" stop-color="#172428"/></linearGradient><linearGradient id="gold" x1="0" y1="0" x2="1" y2="1"><stop stop-color="#e4d29f"/><stop offset="1" stop-color="#6e5034"/></linearGradient></defs><rect width="1200" height="650" fill="url(#bg)"/><circle cx="1030" cy="100" r="260" fill="#cdb885" opacity=".07"/><rect x="70" y="65" width="1060" height="520" rx="30" fill="#11161a" stroke="#cdb885" stroke-opacity=".2"/>
<g font-family="Arial"><text x="112" y="120" fill="#f1ece3" font-size="24" font-weight="700">OrbitOps</text><text x="112" y="145" fill="#7f8b8e" font-size="12">Cloud control center</text><rect x="850" y="96" width="120" height="38" rx="19" fill="#64d9a6" opacity=".12"/><circle cx="874" cy="115" r="5" fill="#64d9a6"/><text x="888" y="120" fill="#64d9a6" font-size="11">All systems live</text></g>
<g transform="translate(110 180)"><rect width="610" height="340" rx="24" fill="#0d1115" stroke="#cdb885" stroke-opacity=".13"/><g opacity=".08" stroke="#cdb885"><path d="M0 68h610M0 136h610M0 204h610M0 272h610"/><path d="M76 0v340M152 0v340M228 0v340M304 0v340M380 0v340M456 0v340M532 0v340"/></g><g stroke="#5d6f72" stroke-width="2"><path d="M116 92 274 164 448 89M116 92l30 160m128-88 20 112m154-187 38 170M146 252l148 24 192-17"/></g><g><circle cx="116" cy="92" r="30" fill="#172126" stroke="#cdb885" stroke-opacity=".4"/><circle cx="274" cy="164" r="36" fill="#172126" stroke="#cdb885" stroke-opacity=".4"/><circle cx="448" cy="89" r="28" fill="#172126" stroke="#cdb885" stroke-opacity=".4"/><circle cx="146" cy="252" r="27" fill="#172126" stroke="#64d9a6" stroke-opacity=".4"/><circle cx="294" cy="276" r="31" fill="#172126" stroke="#64d9a6" stroke-opacity=".4"/><circle cx="486" cy="259" r="34" fill="#172126" stroke="#64d9a6" stroke-opacity=".4"/></g><g fill="#cdb885"><circle cx="116" cy="92" r="6"/><circle cx="274" cy="164" r="7"/><circle cx="448" cy="89" r="6"/></g><g fill="#64d9a6"><circle cx="146" cy="252" r="6"/><circle cx="294" cy="276" r="6"/><circle cx="486" cy="259" r="6"/></g></g>
<g transform="translate(760 180)" font-family="Arial"><rect width="330" height="160" rx="24" fill="#171d21" stroke="#cdb885" stroke-opacity=".13"/><text x="24" y="36" fill="#838d90" font-size="12">INFRASTRUCTURE HEALTH</text><text x="24" y="82" fill="#f1ece3" font-size="36" font-weight="700">99.98%</text><path d="M24 122c34-5 48-30 80-20s45-25 76-17 44-22 74-12 32-14 52-20" fill="none" stroke="url(#gold)" stroke-width="4"/><rect y="186" width="330" height="154" rx="24" fill="#171d21" stroke="#cdb885" stroke-opacity=".13"/><text x="24" y="222" fill="#838d90" font-size="12">RECENT DEPLOYMENTS</text><g fill="#e7e1d7" font-size="12"><text x="48" y="260">API Gateway v3.8</text><text x="48" y="295">Analytics Worker v2.1</text></g><g fill="#64d9a6"><circle cx="27" cy="256" r="5"/><circle cx="27" cy="291" r="5"/></g><g fill="#7d8789" font-size="10"><text x="248" y="260">2m ago</text><text x="248" y="295">18m ago</text></g></g>
</svg>
