<svg xmlns="http://www.w3.org/2000/svg" viewBox="0 0 1000 650" role="img" aria-labelledby="title desc"><title id="title">Synapse artificial intelligence copilot</title><desc id="desc">Futuristic AI workflow and conversation interface</desc>
<defs><linearGradient id="bg" x1="0" y1="0" x2="1" y2="1"><stop stop-color="#090b10"/><stop offset="1" stop-color="#241b2c"/></linearGradient><linearGradient id="gold" x1="0" y1="0" x2="1" y2="1"><stop stop-color="#e6d6aa"/><stop offset="1" stop-color="#8b6a42"/></linearGradient><filter id="blur"><feGaussianBlur stdDeviation="30"/></filter></defs>
<rect width="1000" height="650" fill="url(#bg)"/><circle cx="740" cy="190" r="190" fill="#9d70c7" opacity=".12" filter="url(#blur)"/><circle cx="220" cy="530" r="180" fill="#cdb885" opacity=".08" filter="url(#blur)"/>
<g opacity=".1" stroke="#cdb885"><path d="M0 80h1000M0 160h1000M0 240h1000M0 320h1000M0 400h1000M0 480h1000M0 560h1000"/><path d="M100 0v650M200 0v650M300 0v650M400 0v650M500 0v650M600 0v650M700 0v650M800 0v650M900 0v650"/></g>
<rect x="78" y="66" width="844" height="520" rx="30" fill="#111319" stroke="#cdb885" stroke-opacity=".24"/>
<rect x="78" y="66" width="218" height="520" rx="30" fill="#0d0f14"/><g font-family="Arial"><circle cx="126" cy="116" r="20" fill="url(#gold)"/><text x="158" y="121" fill="#f4eee4" font-size="19" font-weight="700">SYNAPSE</text><rect x="105" y="176" width="165" height="44" rx="13" fill="#cdb885" opacity=".12" stroke="#cdb885" stroke-opacity=".25"/><text x="135" y="203" fill="#d9c899" font-size="13">New conversation</text><g fill="#87817a" font-size="12"><text x="108" y="268">Product intelligence</text><text x="108" y="311">Customer insights</text><text x="108" y="354">Workflow automation</text><text x="108" y="397">Knowledge assistant</text></g></g>
<g transform="translate(330 100)" font-family="Arial"><text x="0" y="25" fill="#f1ece3" font-size="22" font-weight="700">Good morning, Daniel.</text><text x="0" y="52" fill="#8c8680" font-size="13">What would you like to accelerate today?</text><g transform="translate(0 90)"><rect width="525" height="84" rx="18" fill="#191c23" stroke="#cdb885" stroke-opacity=".13"/><circle cx="42" cy="42" r="18" fill="#cdb885" opacity=".16"/><path d="M34 42h16m-8-8v16" stroke="#cdb885" stroke-width="2"/><text x="76" y="37" fill="#e8e2d8" font-size="13" font-weight="700">Analyze this quarter's customer feedback</text><text x="76" y="58" fill="#817b75" font-size="11">Find themes, risks, and product opportunities</text></g><g transform="translate(0 194)"><rect width="525" height="160" rx="20" fill="#151820" stroke="#cdb885" stroke-opacity=".13"/><text x="25" y="35" fill="#cdb885" font-size="12" font-weight="700">AI RESPONSE</text><rect x="25" y="57" width="430" height="8" rx="4" fill="#ddd5c8" opacity=".75"/><rect x="25" y="78" width="467" height="8" rx="4" fill="#8c8680" opacity=".45"/><rect x="25" y="99" width="390" height="8" rx="4" fill="#8c8680" opacity=".45"/><rect x="25" y="120" width="446" height="8" rx="4" fill="#8c8680" opacity=".45"/></g><g transform="translate(0 380)"><rect width="525" height="64" rx="18" fill="#191c23" stroke="#cdb885" stroke-opacity=".18"/><text x="22" y="39" fill="#8c8680" font-size="12">Ask Synapse anything...</text><circle cx="485" cy="32" r="20" fill="url(#gold)"/><path d="m478 33 7 0m0 0-3-3m3 3-3 3" stroke="#2a2117" stroke-width="2" fill="none"/></g></g>
</svg>
