<svg xmlns="http://www.w3.org/2000/svg" viewBox="0 0 1000 650" role="img" aria-labelledby="title desc">
<title id="title">Atelier premium commerce experience</title><desc id="desc">Elegant product storefront with fashion product cards</desc>
<defs><linearGradient id="bg" x1="0" y1="0" x2="1" y2="1"><stop stop-color="#17130f"/><stop offset="1" stop-color="#3a2b1d"/></linearGradient><linearGradient id="p" x1="0" y1="0" x2="0" y2="1"><stop stop-color="#f1e4c5"/><stop offset="1" stop-color="#b99a68"/></linearGradient></defs>
<rect width="1000" height="650" fill="url(#bg)"/><circle cx="820" cy="130" r="230" fill="#cdb885" opacity=".08"/><rect x="64" y="62" width="872" height="526" rx="26" fill="#f4f0e8"/>
<g font-family="Arial"><text x="105" y="116" fill="#2f251c" font-size="25" font-weight="700" letter-spacing="5">ATELIER</text><text x="590" y="113" fill="#776d62" font-size="13">NEW</text><text x="660" y="113" fill="#776d62" font-size="13">COLLECTIONS</text><text x="775" y="113" fill="#776d62" font-size="13">STORY</text><circle cx="886" cy="107" r="18" fill="#2f251c"/><path d="M878 108h16m-8-8v16" stroke="#f4f0e8" stroke-width="2"/></g>
<g transform="translate(100 150)"><rect width="510" height="390" rx="22" fill="url(#p)"/><circle cx="410" cy="80" r="120" fill="#fff" opacity=".16"/><path d="M210 76c40-35 91-37 131 0l22 87-44 14-5 167H237l-5-167-44-14 22-87Z" fill="#2c261f"/><path d="M260 50c12-18 35-18 48 0l10 27h-68l10-27Z" fill="#2c261f"/><text x="30" y="40" fill="#594b3b" font-family="Arial" font-size="14">SIGNATURE COLLECTION</text><rect x="30" y="315" width="170" height="48" rx="24" fill="#2f251c"/><text x="115" y="345" text-anchor="middle" fill="#f4f0e8" font-family="Arial" font-size="13" font-weight="700">EXPLORE NOW</text></g>
<g transform="translate(640 150)" font-family="Arial"><text x="0" y="30" fill="#2f251c" font-size="33" font-weight="700">Quiet luxury,</text><text x="0" y="70" fill="#6e5034" font-size="33" font-weight="700">designed to last.</text><text x="0" y="108" fill="#887c70" font-size="13">Refined essentials for a modern wardrobe.</text><g transform="translate(0 145)"><rect width="125" height="170" rx="17" fill="#ded3c0"/><rect x="145" width="125" height="170" rx="17" fill="#c7b79c"/><path d="M39 42h48l14 34-20 10-3 64H48l-3-64-20-10 14-34Z" fill="#6e5034"/><path d="M184 42h48l14 34-20 10-3 64h-30l-3-64-20-10 14-34Z" fill="#f0eadf"/><text x="0" y="200" fill="#2f251c" font-size="14" font-weight="700">Essential Knit</text><text x="145" y="200" fill="#2f251c" font-size="14" font-weight="700">Linen Form</text><text x="0" y="222" fill="#887c70" font-size="12">$120</text><text x="145" y="222" fill="#887c70" font-size="12">$145</text></g></g>
</svg>
