<svg xmlns="http://www.w3.org/2000/svg" viewBox="0 0 120 120"><defs><linearGradient id="g" x1="0" y1="0" x2="1" y2="1"><stop stop-color="#6e5034"/><stop offset="1" stop-color="#e1c994"/></linearGradient></defs><rect width="120" height="120" rx="60" fill="#211919"/><circle cx="60" cy="48" r="25" fill="#c48863"/><path d="M31 48c-2-25 12-38 31-38 23 0 34 18 29 43-6-4-10-11-12-20-12 11-28 16-48 15Z" fill="#231817"/><path d="M20 116c3-28 19-41 40-41s38 13 40 41" fill="url(#g)"/><circle cx="51" cy="49" r="2" fill="#38211c"/><circle cx="69" cy="49" r="2" fill="#38211c"/><path d="M52 61c6 5 11 5 17 0" fill="none" stroke="#8a4437" stroke-width="2" stroke-linecap="round"/><circle cx="31" cy="52" r="4" fill="#cdb885"/><circle cx="89" cy="52" r="4" fill="#cdb885"/></svg>
