<svg xmlns="http://www.w3.org/2000/svg" viewBox="0 0 120 120"><defs><linearGradient id="g" x1="0" y1="0" x2="1" y2="1"><stop stop-color="#cdb885"/><stop offset="1" stop-color="#6e5034"/></linearGradient></defs><rect width="120" height="120" rx="60" fill="#1b1b1e"/><circle cx="60" cy="48" r="25" fill="#b87553"/><path d="M32 48c0-24 13-36 30-36 21 0 31 17 29 39-9-5-14-14-16-23-10 13-24 19-43 20Z" fill="#2b1b17"/><path d="M20 116c3-28 18-40 40-40s38 12 40 40" fill="url(#g)"/><circle cx="51" cy="48" r="2" fill="#342019"/><circle cx="69" cy="48" r="2" fill="#342019"/><path d="M53 61c5 4 10 4 15 0" fill="none" stroke="#7a3e32" stroke-width="2" stroke-linecap="round"/></svg>
