<svg xmlns="http://www.w3.org/2000/svg" viewBox="0 0 1000 650" role="img" aria-labelledby="title desc">
  <title id="title">CareSphere mobile health application</title><desc id="desc">Abstract mobile health application screens</desc>
  <defs><linearGradient id="b" x1="0" y1="0" x2="1" y2="1"><stop stop-color="#111417"/><stop offset="1" stop-color="#1e302a"/></linearGradient><linearGradient id="g" x1="0" y1="0" x2="1" y2="1"><stop stop-color="#e4d29f"/><stop offset="1" stop-color="#70b79d"/></linearGradient></defs>
  <rect width="1000" height="650" fill="url(#b)"/><circle cx="180" cy="100" r="210" fill="#cdb885" opacity=".08"/><circle cx="860" cy="600" r="250" fill="#70b79d" opacity=".07"/>
  <g transform="translate(110 90) rotate(-7 180 245)"><rect width="340" height="500" rx="48" fill="#0c0e10" stroke="#cdb885" stroke-opacity=".3" stroke-width="3"/><rect x="22" y="25" width="296" height="450" rx="32" fill="#f5f2eb"/><rect x="122" y="38" width="96" height="11" rx="5.5" fill="#252525" opacity=".2"/><text x="48" y="102" fill="#27231f" font-family="Arial" font-size="24" font-weight="700">Good morning, Maya</text><text x="48" y="130" fill="#7d766e" font-family="Arial" font-size="13">How are you feeling today?</text><rect x="47" y="165" width="246" height="116" rx="24" fill="url(#g)"/><circle cx="244" cy="220" r="34" fill="#fff" opacity=".3"/><path d="M232 220h24m-12-12v24" stroke="#fff" stroke-width="7" stroke-linecap="round"/><text x="67" y="205" fill="#34291f" font-family="Arial" font-size="14">NEXT APPOINTMENT</text><text x="67" y="236" fill="#34291f" font-family="Arial" font-size="23" font-weight="700">Today, 3:30 PM</text><g transform="translate(47 315)"><rect width="112" height="105" rx="20" fill="#fff" stroke="#ded9cf"/><rect x="134" width="112" height="105" rx="20" fill="#fff" stroke="#ded9cf"/><circle cx="35" cy="33" r="17" fill="#cdb885" opacity=".3"/><circle cx="169" cy="33" r="17" fill="#70b79d" opacity=".3"/><rect x="22" y="66" width="64" height="9" rx="4.5" fill="#3a3530"/><rect x="156" y="66" width="64" height="9" rx="4.5" fill="#3a3530"/></g></g>
  <g transform="translate(525 60) rotate(7 180 260)"><rect width="350" height="520" rx="50" fill="#0c0e10" stroke="#70b79d" stroke-opacity=".28" stroke-width="3"/><rect x="22" y="25" width="306" height="470" rx="32" fill="#111519"/><rect x="126" y="38" width="98" height="11" rx="5.5" fill="#fff" opacity=".16"/><text x="48" y="102" fill="#f5f0e7" font-family="Arial" font-size="21" font-weight="700">Health overview</text><circle cx="175" cy="225" r="94" fill="none" stroke="#24332e" stroke-width="18"/><path d="M175 131a94 94 0 1 1-87 130" fill="none" stroke="url(#g)" stroke-width="18" stroke-linecap="round"/><text x="175" y="220" text-anchor="middle" fill="#f5f0e7" font-family="Arial" font-size="44" font-weight="700">86</text><text x="175" y="246" text-anchor="middle" fill="#8f9b96" font-family="Arial" font-size="13">WELLNESS SCORE</text><g transform="translate(47 350)"><rect width="256" height="88" rx="22" fill="#1a2023" stroke="#cdb885" stroke-opacity=".16"/><path d="M30 52h24l14-30 18 52 16-35 15 13h34" fill="none" stroke="#cdb885" stroke-width="4" stroke-linecap="round" stroke-linejoin="round"/><text x="174" y="39" fill="#f1ece3" font-family="Arial" font-size="14" font-weight="700">72 bpm</text><text x="174" y="59" fill="#829089" font-family="Arial" font-size="11">Heart rate</text></g></g>
</svg>
